<svg width="128px" height="128px" version="1.1" id="dumbbell_svg__Layer_1_2614" xmlns="http://www.w3.org/2000/svg" x="0" y="0" viewBox="178.4 496.9 638.3 268.6" xml:space="preserve"><style>[data-id="svg-loader_2613"] .dumbbell_svg__st0{fill:#fff}[data-id="svg-loader_2613"] .dumbbell_svg__st1{fill:#4e5a7d}[data-id="svg-loader_2613"] .dumbbell_svg__st3,[data-id="svg-loader_2613"] .dumbbell_svg__st5{fill:none;stroke:#4e5a7d;stroke-width:6;stroke-linecap:round;stroke-linejoin:round;stroke-miterlimit:10}[data-id="svg-loader_2613"] .dumbbell_svg__st5{stroke:#592d2d}[data-id="svg-loader_2613"] .dumbbell_svg__st6{fill:#d16f6f}[data-id="svg-loader_2613"] .dumbbell_svg__st7{fill:#e08484}[data-id="svg-loader_2613"] .dumbbell_svg__st8{fill:#d87171}[data-id="svg-loader_2613"] .dumbbell_svg__st9{fill:#e99697}[data-id="svg-loader_2613"] .dumbbell_svg__st10{fill:#c46565}[data-id="svg-loader_2613"] .dumbbell_svg__st11{fill:none;stroke:#4e5a7d;stroke-width:4;stroke-linecap:round;stroke-linejoin:round;stroke-miterlimit:10}</style>&gt;<path id="dumbbell_svg__XMLID_51__2615" class="dumbbell_svg__st3" d="M237.9 760.5h479.9"></path><path id="dumbbell_svg__XMLID_50__2616" class="dumbbell_svg__st3" d="M744.9 760.5h49.4"></path><path id="dumbbell_svg__XMLID_49__2617" class="dumbbell_svg__st3" d="M183.4 760.5H218"></path><path id="dumbbell_svg__XMLID_48__2618" class="dumbbell_svg__st3" d="M811.7 760.5h8.5"></path><g id="dumbbell_svg__XMLID_40__2619" opacity=".2"><path id="dumbbell_svg__XMLID_47__2620" class="dumbbell_svg__st5" d="M455.1 501.9v30.9h-61.8"></path><path id="dumbbell_svg__XMLID_46__2621" class="dumbbell_svg__st5" d="M517 532.8h-61.9v-30.9"></path><path id="dumbbell_svg__XMLID_45__2622" class="dumbbell_svg__st5" d="M424.2 532.8h61.9v30.9h-61.9z"></path><path id="dumbbell_svg__XMLID_44__2623" class="dumbbell_svg__st5" d="M472.7 594.6h-17.6v-30.9H517"></path><path id="dumbbell_svg__XMLID_43__2624" class="dumbbell_svg__st5" d="M393.3 563.7h61.8v30.9H405"></path><path id="dumbbell_svg__XMLID_42__2625" class="dumbbell_svg__st5" d="M372.2 532.8h52v30.9h-30.9"></path><path id="dumbbell_svg__XMLID_41__2626" class="dumbbell_svg__st5" d="M530.7 563.7H486v-30.9h21.5"></path></g><ellipse id="dumbbell_svg__XMLID_39__2627" class="dumbbell_svg__st3" cx="329.9" cy="675.9" rx="24" ry="44.3"></ellipse><path id="dumbbell_svg__XMLID_38__2628" class="dumbbell_svg__st0" d="M299.1 686.1h-13.7c-6.1 0-11-4.9-11-11v-3.5c0-6.1 4.9-11 11-11h13.7v25.5z"></path><path id="dumbbell_svg__XMLID_37__2629" class="dumbbell_svg__st3" d="M299.1 686.1h-13.7c-6.1 0-11-4.9-11-11v-3.5c0-6.1 4.9-11 11-11h13.7v25.5z"></path><path id="dumbbell_svg__XMLID_36__2630" class="dumbbell_svg__st6" d="M322.7 634.4h-19.1c-9.3 0-16.8 17.4-16.8 39 0 21.5 7.5 39 16.8 39 .3 0 .7 0 1-.1h18.1v-77.9z"></path><path id="dumbbell_svg__XMLID_35__2631" class="dumbbell_svg__st3" d="M322.7 634.4h-19.1c-9.3 0-16.8 17.4-16.8 39 0 21.5 7.5 39 16.8 39 .3 0 .7 0 1-.1h18.1v-77.9z"></path><path id="dumbbell_svg__XMLID_34__2632" class="dumbbell_svg__st7" d="M404.2 586.3h-53.6c-26 0-47.1 39-47.1 87.1 0 48.1 21.1 87.1 47.1 87.1.9 0 1.9-.1 2.8-.2h50.8v-174z"></path><path id="dumbbell_svg__XMLID_33__2633" class="dumbbell_svg__st7" d="M404.2 586.3h-53.6c-26 0-47.1 39-47.1 87.1 0 48.1 21.1 87.1 47.1 87.1.9 0 1.9-.1 2.8-.2h50.8v-174z"></path><path id="dumbbell_svg__XMLID_32__2634" class="dumbbell_svg__st7" d="M404.2 586.3h-53.6c-26 0-47.1 39-47.1 87.1 0 48.1 21.1 87.1 47.1 87.1.9 0 1.9-.1 2.8-.2h50.8v-174z"></path><path id="dumbbell_svg__XMLID_31__2635" class="dumbbell_svg__st8" d="M320.9 740.9c8.1 12.2 18.5 19.5 29.7 19.5.9 0 1.9-.1 2.8-.2h50.8v-19.3h-83.3z"></path><path id="dumbbell_svg__XMLID_30__2636" class="dumbbell_svg__st9" d="M320.4 606.5h83.8v-20.3h-53.6c-11.5.1-22.1 7.7-30.2 20.3z"></path><path id="dumbbell_svg__XMLID_29__2637" class="dumbbell_svg__st3" d="M404.2 586.3h-53.6c-26 0-47.1 39-47.1 87.1 0 48.1 21.1 87.1 47.1 87.1.9 0 1.9-.1 2.8-.2h50.8v-174z"></path><ellipse id="dumbbell_svg__XMLID_28__2638" class="dumbbell_svg__st8" cx="405.6" cy="673.4" rx="47.1" ry="87.1"></ellipse><ellipse id="dumbbell_svg__XMLID_27__2639" class="dumbbell_svg__st3" cx="405.6" cy="673.4" rx="47.1" ry="87.1"></ellipse><ellipse id="dumbbell_svg__XMLID_26__2640" class="dumbbell_svg__st1" cx="405.6" cy="673.4" rx="9.2" ry="20.4"></ellipse><ellipse id="dumbbell_svg__XMLID_25__2641" class="dumbbell_svg__st10" cx="405.6" cy="673.4" rx="33.1" ry="70.4"></ellipse><ellipse id="dumbbell_svg__XMLID_24__2642" class="dumbbell_svg__st6" cx="405.6" cy="673.4" rx="17.2" ry="33.1"></ellipse><ellipse id="dumbbell_svg__XMLID_23__2643" class="dumbbell_svg__st11" cx="405.6" cy="673.4" rx="17.2" ry="33.1"></ellipse><ellipse id="dumbbell_svg__XMLID_22__2644" class="dumbbell_svg__st3" cx="405.6" cy="673.4" rx="9.2" ry="20.4"></ellipse><ellipse id="dumbbell_svg__XMLID_21__2645" class="dumbbell_svg__st1" cx="405.6" cy="673.4" rx="9.2" ry="20.4"></ellipse><ellipse id="dumbbell_svg__XMLID_20__2646" class="dumbbell_svg__st11" cx="405.6" cy="673.4" rx="33.1" ry="70.4"></ellipse><path id="dumbbell_svg__XMLID_19__2647" class="dumbbell_svg__st0" d="M404.1 660.7c-1.3 3.4-2.2 7.8-2.2 12.6 0 4.9.9 9.2 2.2 12.6.6.1 1.2.2 1.8.2h174v-25.6h-174c-.7.1-1.2.1-1.8.2z"></path><path id="dumbbell_svg__XMLID_18__2648" class="dumbbell_svg__st3" d="M404.1 660.7c-1.3 3.4-2.2 7.8-2.2 12.6 0 4.9.9 9.2 2.2 12.6.6.1 1.2.2 1.8.2h174v-25.6h-174c-.7.1-1.2.1-1.8.2z"></path><path id="dumbbell_svg__XMLID_17__2649" class="dumbbell_svg__st7" d="M651 586.3h-53.6c-26 0-47.1 39-47.1 87.1 0 48.1 21.1 87.1 47.1 87.1.9 0 1.9-.1 2.8-.2H651v-174z"></path><path id="dumbbell_svg__XMLID_16__2650" class="dumbbell_svg__st8" d="M569.2 740.9c8.1 12.2 18.5 19.5 29.7 19.5.9 0 1.9-.1 2.8-.2h50.8v-19.3h-83.3z"></path><path id="dumbbell_svg__XMLID_15__2651" class="dumbbell_svg__st9" d="M568.6 606.5h83.8v-20.3h-53.6c-11.4.1-22 7.7-30.2 20.3z"></path><path id="dumbbell_svg__XMLID_14__2652" class="dumbbell_svg__st3" d="M651 586.3h-53.6c-26 0-47.1 39-47.1 87.1 0 48.1 21.1 87.1 47.1 87.1.9 0 1.9-.1 2.8-.2H651v-174z"></path><ellipse id="dumbbell_svg__XMLID_13__2653" class="dumbbell_svg__st7" cx="652.5" cy="673.4" rx="47.1" ry="87.1"></ellipse><ellipse id="dumbbell_svg__XMLID_12__2654" class="dumbbell_svg__st8" cx="652.5" cy="673.4" rx="47.1" ry="87.1"></ellipse><ellipse id="dumbbell_svg__XMLID_11__2655" class="dumbbell_svg__st3" cx="652.5" cy="673.4" rx="47.1" ry="87.1"></ellipse><ellipse id="dumbbell_svg__XMLID_10__2656" class="dumbbell_svg__st1" cx="652.5" cy="673.4" rx="9.2" ry="20.4"></ellipse><ellipse id="dumbbell_svg__XMLID_9__2657" class="dumbbell_svg__st10" cx="652.5" cy="673.4" rx="33.1" ry="73.1"></ellipse><ellipse id="dumbbell_svg__XMLID_8__2658" class="dumbbell_svg__st11" cx="652.5" cy="673.4" rx="33.1" ry="73.1"></ellipse><path id="dumbbell_svg__XMLID_7__2659" class="dumbbell_svg__st7" d="M684.6 639.6h-22c-10.7 0-19.4 15.8-19.4 35.3 0 19.5 8.7 35.3 19.4 35.3.4 0 .8 0 1.2-.1h20.9v-70.5z"></path><path id="dumbbell_svg__XMLID_6__2660" class="dumbbell_svg__st3" d="M682.2 639.6H662c-9.8 0-17.8 15.8-17.8 35.3 0 19.5 8 35.3 17.8 35.3.4 0 .7 0 1.1-.1h19.2v-70.5z"></path><ellipse id="dumbbell_svg__XMLID_5__2661" class="dumbbell_svg__st7" cx="682.7" cy="674.9" rx="16.9" ry="35.3"></ellipse><ellipse id="dumbbell_svg__XMLID_4__2662" class="dumbbell_svg__st3" cx="681.8" cy="674.9" rx="17.8" ry="35.3"></ellipse><path id="dumbbell_svg__XMLID_3__2663" class="dumbbell_svg__st0" d="M691.7 687.7c6.1 0 11-4.9 11-11v-3.5c0-6.1-4.9-11-11-11-5.6 0-10.1 4.5-10.1 10.1v5.4c0 5.5 4.5 10 10.1 10z"></path><path id="dumbbell_svg__XMLID_2__2664" class="dumbbell_svg__st3" d="M691.7 687.7c6.1 0 11-4.9 11-11v-3.5c0-6.1-4.9-11-11-11-5.6 0-10.1 4.5-10.1 10.1v5.4c0 5.5 4.5 10 10.1 10z"></path><path id="dumbbell_svg__XMLID_1__2665" d="M405.1 615.9h-3.8v5.9h2.8-.2c2.2 0 3.9 2.2 3.9 4.9s-1.8 4.9-3.9 4.9c-1.6 0-2.9-1.1-3.5-2.8" fill="none" stroke="#4e5a7d" stroke-width="2" stroke-linecap="round" stroke-linejoin="round" stroke-miterlimit="10"></path></svg>