<svg width="32px" height="32px" viewBox="0 0 64 64" xmlns="http://www.w3.org/2000/svg" fill="currentColor" color="#000000"><path d="M8 16A8 8 0 108 0a8 8 0 000 16zm0-2A6 6 0 108 2a6 6 0 000 12zm33.414-6l5.95-5.95L45.95.636 40 6.586 34.05.636 32.636 2.05 38.586 8l-5.95 5.95 1.414 1.414L40 9.414l5.95 5.95 1.414-1.414L41.414 8zM40 48a8 8 0 100-16 8 8 0 000 16zm0-2a6 6 0 100-12 6 6 0 000 12zM9.414 40l5.95-5.95-1.414-1.414L8 38.586l-5.95-5.95L.636 34.05 6.586 40l-5.95 5.95 1.414 1.414L8 41.414l5.95 5.95 1.414-1.414L9.414 40z" fill-rule="evenodd"></path></svg>