<svg width="128px" height="128px" version="1.1" id="apple-watch_svg__Layer_1_346" xmlns="http://www.w3.org/2000/svg" x="0" y="0" viewBox="360.3 250.5 270.6 490.1" xml:space="preserve"><style>[data-id="svg-loader_345"] .apple-watch_svg__st5,[data-id="svg-loader_345"] .apple-watch_svg__st7{fill:none;stroke:#192244;stroke-width:6;stroke-linecap:round;stroke-linejoin:round;stroke-miterlimit:10}[data-id="svg-loader_345"] .apple-watch_svg__st7{stroke:#26a7bc;stroke-width:4}[data-id="svg-loader_345"] .apple-watch_svg__st10{fill:#404a6e}[data-id="svg-loader_345"] .apple-watch_svg__st13{opacity:.91;fill:#6d7493}</style><ellipse id="apple-watch_svg__XMLID_3__347" cx="497.4" cy="719.9" rx="133.9" ry="18.6" opacity=".86" fill="#2d2c3a"></ellipse><path id="apple-watch_svg__XMLID_14__348" d="M628.7 411.1h-3.2c-1.8 0-3.5.8-4.5 2.2-5 7.2-5.7 15.7-5.7 24.8 0 9.1.7 17.6 5.7 24.8 1 1.4 2.7 2.2 4.5 2.2h3.2c1.9 0 3.7-1.4 4.1-3.1 3-15.8 2.2-32.1 0-47.8-.3-1.7-2.2-3.1-4.1-3.1z" fill="#8e9091"></path><path id="apple-watch_svg__XMLID_15__349" d="M628.7 411.1h-3.2c-1.8 0-3.5.8-4.5 2.2-5 7.2-5.7 15.7-5.7 24.8 0 9.1.7 17.6 5.7 24.8 1 1.4 2.7 2.2 4.5 2.2h3.2c1.9 0 3.7-1.4 4.1-3.1 3-15.8 2.2-32.1 0-47.8-.3-1.7-2.2-3.1-4.1-3.1z" opacity=".91" fill="#95a0c6"></path><path id="apple-watch_svg__XMLID_11__350" class="apple-watch_svg__st5" d="M628.7 411.1h-3.2c-1.8 0-3.5.8-4.5 2.2-5 7.2-5.7 15.7-5.7 24.8 0 9.1.7 17.6 5.7 24.8 1 1.4 2.7 2.2 4.5 2.2h3.2c1.9 0 3.7-1.4 4.1-3.1 3-15.8 2.2-32.1 0-47.8-.3-1.7-2.2-3.1-4.1-3.1z"></path><path id="apple-watch_svg__XMLID_13__351" d="M579.3 331.5c-3.4-11.3-3.8-21.8-4.2-28.8-.3-6-.1-24-5.1-29.2-4.4-4.6-8.5-7.8-28.5-10.8-10.8-1.6-27.8-3.7-43.8-4-16 .3-33 2.3-43.8 4-20 3-24 6.2-28.5 10.8-5 5.1-4.8 23.1-5.1 29.2-.4 7-.8 17.5-4.2 28.8-1.6 5.3-3.6 10.4-6 15.3h175.4c-2.6-4.8-4.6-10-6.2-15.3z" fill="#55c9ff"></path><path id="apple-watch_svg__XMLID_10__352" class="apple-watch_svg__st7" d="M579.3 331.5c-3.4-11.3-3.8-21.8-4.2-28.8-.3-6-.1-24-5.1-29.2-4.4-4.6-8.5-7.8-28.5-10.8-10.8-1.6-27.8-3.7-43.8-4-16 .3-33 2.3-43.8 4-20 3-24 6.2-28.5 10.8-5 5.1-4.8 23.1-5.1 29.2-.4 7-.8 17.5-4.2 28.8-1.6 5.3-3.6 10.4-6 15.3h175.4c-2.6-4.8-4.6-10-6.2-15.3z"></path><path id="apple-watch_svg__XMLID_48__353" d="M579.3 651.6c-3.4 11.3-3.8 21.8-4.2 28.8-.3 6-.1 24-5.1 29.2-4.4 4.6-8.5 7.8-28.5 10.8-10.8 1.6-27.8 3.7-43.8 4-16-.3-33-2.3-43.8-4-20-3-24-6.2-28.5-10.8-5-5.1-4.8-23.1-5.1-29.2-.4-7-.8-17.5-4.2-28.8-1.6-5.3-3.6-10.4-6-15.3h175.4c-2.6 4.9-4.6 10-6.2 15.3z" fill="#49c6f2"></path><path id="apple-watch_svg__XMLID_62__354" d="M410 636.3c2.3 4.6 4.2 9.5 5.8 14.5h163.8c1.6-5 3.5-9.9 5.8-14.5H410z" fill="#26a7bc"></path><path id="apple-watch_svg__XMLID_31__355" class="apple-watch_svg__st7" d="M579.3 651.6c-3.4 11.3-3.8 21.8-4.2 28.8-.3 6-.1 24-5.1 29.2-4.4 4.6-8.5 7.8-28.5 10.8-10.8 1.6-27.8 3.7-43.8 4-16-.3-33-2.3-43.8-4-20-3-24-6.2-28.5-10.8-5-5.1-4.8-23.1-5.1-29.2-.4-7-.8-17.5-4.2-28.8-1.6-5.3-3.6-10.4-6-15.3h175.4c-2.6 4.9-4.6 10-6.2 15.3z"></path><path id="apple-watch_svg__XMLID_9__356" class="apple-watch_svg__st10" d="M577.1 636.3H417.7c-24.3 0-44-19.7-44-44v-202c0-24.3 19.7-44 44-44h159.4c24.3 0 44 19.7 44 44v202c0 24.3-19.7 44-44 44z"></path><path id="apple-watch_svg__XMLID_43__357" d="M577.1 618.3H417.7c-24.3 0-44-19.7-44-44v18c0 24.3 19.7 44 44 44h159.4c24.3 0 44-19.7 44-44v-18c0 24.3-19.7 44-44 44z" fill="#273052"></path><path id="apple-watch_svg__XMLID_12__358" class="apple-watch_svg__st10" d="M389.3 592.3v-202c0-15.5 12.5-28 28-28h160.2c15.5 0 28 12.5 28 28v202c0 15.5-12.5 28-28 28H417.3c-15.5 0-28-12.5-28-28z"></path><path id="apple-watch_svg__XMLID_6__359" d="M389.3 592.3v-202c0-15.5 12.5-28 28-28h160.2c15.5 0 28 12.5 28 28v202c0 15.5-12.5 28-28 28H417.3c-15.5 0-28-12.5-28-28z" fill="none" stroke="#192244" stroke-width="4" stroke-linecap="round" stroke-linejoin="round" stroke-miterlimit="10"></path><path id="apple-watch_svg__XMLID_27__360" class="apple-watch_svg__st13" d="M601.6 353c-7-4.2-15.4-6.7-24.5-6.7H417.7c-9.6 0-18.5 2.8-25.7 7.5 6 9.9 17.7 16.5 31.1 16.5H570c13.8 0 25.7-7 31.6-17.3z"></path><path id="apple-watch_svg__XMLID_5__361" class="apple-watch_svg__st13" d="M629.9 499.2c0-1.7-1.6-3-3.4-3h-5.3v83.3h5.3c1.9 0 3.4-1.3 3.4-3 .5-25.7.5-51.5 0-77.3z"></path><path id="apple-watch_svg__XMLID_17__362" class="apple-watch_svg__st5" d="M629.9 499.2c0-1.7-1.6-3-3.4-3h-5.3v83.3h5.3c1.9 0 3.4-1.3 3.4-3 .5-25.7.5-51.5 0-77.3z"></path><path id="apple-watch_svg__XMLID_2__363" d="M577.1 636.3H417.7c-24.3 0-44-19.7-44-44v-202c0-24.3 19.7-44 44-44h159.4c24.3 0 44 19.7 44 44v202c0 24.3-19.7 44-44 44z" fill="none" stroke="#192244" stroke-width="7" stroke-linecap="round" stroke-linejoin="round" stroke-miterlimit="10"></path><path id="apple-watch_svg__XMLID_20__364" d="M438.4 426.9v7.2c0 2.2-1.8 4-4 4h-15.3c-2.2 0-4-1.8-4-4v-15.3c0-2.2 1.8-4 4-4h10.8" fill="none" stroke="#f6537f" stroke-width="4" stroke-linecap="round" stroke-linejoin="round" stroke-miterlimit="10"></path><path id="apple-watch_svg__XMLID_16__365" fill="none" stroke="#f6537f" stroke-width="5" stroke-linecap="round" stroke-linejoin="round" stroke-miterlimit="10" d="M421.8 423.5l5.9 5.8 10.7-13.3"></path><path id="apple-watch_svg__XMLID_19__366" fill="none" stroke="#f6537f" stroke-width="2" stroke-linejoin="round" stroke-miterlimit="10" d="M413 458h65.6"></path><path d="M442.7 465.5v33.9c0 1.4-.1 2.7-.2 3.9-.2 1.2-.4 2.2-.7 3.1-.6 1.4-1.3 2.6-2.3 3.8s-2.1 2.1-3.4 2.9c-1.3.8-2.7 1.4-4.3 1.9-1.6.5-3.2.7-5 .7-5.2 0-9.5-2.4-12.8-7.2l8.3-8.5c.2 1.5.7 2.6 1.4 3.5.7.9 1.6 1.3 2.7 1.3 2.4 0 3.6-1.9 3.6-5.6v-33.7h12.7zm19.3 15.6v18.7c0 4.1 2 6.1 6 6.1s6-2 6-6.1v-18.7h11.7v21c0 4.5-1.5 7.9-4.4 10.1-3 2.2-7.4 3.4-13.2 3.4-5.9 0-10.3-1.1-13.2-3.4-3-2.2-4.4-5.6-4.4-10.1v-21H462zm52.1 8.6c-2.2-1.1-4.3-1.7-6.3-1.7-1.1 0-2 .2-2.6.6-.7.4-1 1-1 1.7 0 .4.1.7.2.9.1.2.3.5.7.7.4.2.9.4 1.6.6.7.2 1.7.4 2.8.6 3.2.6 5.7 1.8 7.2 3.5 1.6 1.7 2.4 3.8 2.4 6.4 0 1.9-.4 3.7-1.2 5.2s-1.9 2.9-3.2 3.9c-1.4 1.1-3 1.9-5 2.5-1.9.6-4.1.9-6.4.9-4.5 0-8.9-1.3-13.3-3.8l4.3-8.3c3.3 2.2 6.4 3.4 9.3 3.4 1.1 0 2-.2 2.7-.7.7-.5 1-1.1 1-1.8 0-.4-.1-.8-.2-1.1-.1-.3-.3-.5-.7-.8-.3-.2-.9-.5-1.5-.6-.7-.2-1.5-.4-2.6-.6-3.6-.7-6.2-1.8-7.6-3.3-1.4-1.4-2.2-3.4-2.2-6 0-1.9.3-3.5 1-5s1.7-2.8 3-3.8 2.9-1.8 4.7-2.4c1.8-.6 3.9-.8 6.1-.8 3.7 0 7.2.7 10.7 2.1l-3.9 7.7zm23.3 1.2v23.4h-11.7v-23.4h-3.9v-9.8h3.9v-10h11.7v10h6.7v9.8h-6.7z" fill="#2ec2f1"></path><path d="M417.6 530.8h18.8c3.3 0 6.4.7 9.4 2 2.9 1.3 5.5 3.1 7.6 5.3 2.2 2.2 3.9 4.8 5.1 7.8 1.3 3 1.9 6.1 1.9 9.3 0 3.2-.6 6.3-1.8 9.2s-2.9 5.6-5.1 7.8c-2.2 2.2-4.7 4-7.6 5.4-2.9 1.3-6.1 2-9.4 2h-18.8v-48.8zm12.7 38h2.9c2.2 0 4.2-.3 5.9-1 1.7-.7 3.2-1.6 4.4-2.8 1.2-1.2 2.1-2.6 2.7-4.3.6-1.7.9-3.5.9-5.5 0-1.9-.3-3.8-1-5.4-.6-1.7-1.6-3.1-2.8-4.3-1.2-1.2-2.6-2.2-4.4-2.8-1.7-.7-3.7-1-5.8-1h-2.9v27.1zm34.2-6.1c0-2.5.5-4.8 1.5-6.9 1-2.1 2.4-4 4.1-5.6 1.8-1.6 3.9-2.8 6.3-3.7 2.4-.9 5.1-1.4 8-1.4 2.8 0 5.5.4 7.9 1.3 2.4.9 4.6 2.1 6.3 3.7 1.8 1.6 3.2 3.5 4.2 5.6 1 2.2 1.5 4.6 1.5 7.2 0 2.6-.5 5-1.5 7.2s-2.4 4.1-4.2 5.6c-1.8 1.6-3.9 2.8-6.4 3.7-2.5.9-5.2 1.3-8.1 1.3-2.8 0-5.5-.4-7.9-1.3-2.4-.9-4.5-2.1-6.2-3.7-1.7-1.6-3.1-3.5-4.1-5.7-.9-2.1-1.4-4.6-1.4-7.3zm12.4.1c0 1.1.2 2.1.6 3.1.4.9.9 1.7 1.6 2.4.7.7 1.5 1.2 2.4 1.6.9.4 1.9.6 2.9.6s2-.2 2.9-.6c.9-.4 1.7-.9 2.4-1.6.7-.7 1.2-1.5 1.6-2.4.4-.9.6-1.9.6-3 0-1-.2-2-.6-2.9-.4-.9-.9-1.7-1.6-2.4-.7-.7-1.5-1.2-2.4-1.6-.9-.4-1.9-.6-2.9-.6s-2 .2-2.9.6c-.9.4-1.7.9-2.4 1.6-.7.7-1.2 1.5-1.6 2.4-.4.8-.6 1.8-.6 2.8zm66.9-32v48.8h-12.7v-48.8h12.7zm20.7 25.3v23.4h-11.7v-23.4h-3.9v-9.8h3.9v-10h11.7v10h6.7v9.8h-6.7zm8.9 17.2c0-1 .2-2 .6-2.9.4-.9.9-1.7 1.6-2.4.7-.7 1.5-1.2 2.4-1.6.9-.4 1.9-.6 2.9-.6s2 .2 2.9.6c.9.4 1.7.9 2.4 1.6.7.7 1.2 1.5 1.6 2.4.4.9.6 1.9.6 2.9s-.2 2-.6 2.9c-.4.9-.9 1.7-1.6 2.4-.7.7-1.5 1.2-2.4 1.6-.9.4-1.9.6-2.9.6s-2-.2-2.9-.6c-.9-.4-1.7-.9-2.4-1.6-.7-.7-1.2-1.5-1.6-2.4-.4-.8-.6-1.8-.6-2.9zM546 385.7c0 3.5-1.3 5.5-3.6 5.5-2 0-3.4-1.9-3.4-5.3 0-3.5 1.5-5.4 3.6-5.4 2.2-.1 3.4 1.9 3.4 5.2zm-5.6.2c0 2.7.8 4.2 2.1 4.2 1.4 0 2.1-1.7 2.1-4.3 0-2.6-.7-4.2-2.1-4.2-1.2-.1-2.1 1.4-2.1 4.3zm13.1-4.1h-4l-.4 2.7c.2 0 .5-.1.8-.1.8 0 1.6.2 2.2.6.8.5 1.5 1.4 1.5 2.7 0 2-1.6 3.6-3.9 3.6-1.1 0-2.1-.3-2.6-.6l.4-1.1c.4.3 1.3.6 2.2.6 1.3 0 2.5-.9 2.5-2.3 0-1.3-.9-2.3-3-2.3-.6 0-1.1.1-1.4.1l.7-5h5v1.1zm2.2 2.8c0-.6.4-1 1-1s.9.4.9 1-.4 1-1 1-.9-.5-.9-1zm0 5.6c0-.6.4-1 1-1s.9.4.9 1-.4 1-1 1-.9-.4-.9-1zm9.4-8.4h-4l-.4 2.7c.2 0 .5-.1.8-.1.8 0 1.6.2 2.2.6.8.5 1.5 1.4 1.5 2.7 0 2-1.6 3.6-3.9 3.6-1.1 0-2.1-.3-2.6-.6l.4-1.1c.4.3 1.3.6 2.2.6 1.3 0 2.5-.9 2.5-2.3 0-1.3-.9-2.3-3-2.3-.6 0-1.1.1-1.4.1l.7-5h5v1.1zm2 9.2v-.9l1.1-1.1c2.7-2.5 3.9-3.9 3.9-5.4 0-1.1-.5-2-2.1-2-.9 0-1.7.5-2.2.9l-.4-1c.7-.6 1.7-1.1 2.9-1.1 2.2 0 3.2 1.5 3.2 3 0 1.9-1.4 3.5-3.6 5.6l-.8.8h4.7v1.2h-6.7zm-144-9.6h-3.3v-1.2h8v1.2h-3.3v9.6h-1.4v-9.6zm11.7 5.7c0 2.9-2 4.1-3.9 4.1-2.1 0-3.7-1.5-3.7-4 0-2.6 1.7-4.1 3.8-4.1 2.3 0 3.8 1.6 3.8 4zm-6.2.1c0 1.7 1 3 2.4 3 1.3 0 2.4-1.3 2.4-3 0-1.3-.7-3-2.3-3-1.7 0-2.5 1.5-2.5 3zm14.6-7.5v9.4c0 .7 0 1.5.1 2H442l-.1-1.3c-.4.9-1.4 1.5-2.6 1.5-1.9 0-3.3-1.6-3.3-3.9 0-2.6 1.6-4.2 3.5-4.2 1.2 0 2 .6 2.3 1.2v-4.6h1.4zm-1.4 6.7c0-.2 0-.4-.1-.6-.2-.9-1-1.6-2-1.6-1.5 0-2.3 1.3-2.3 3 0 1.6.8 2.9 2.3 2.9.9 0 1.8-.6 2.1-1.7 0-.2.1-.4.1-.6v-1.4zm8.1 4.6l-.1-1c-.4.6-1.3 1.2-2.4 1.2-1.6 0-2.4-1.1-2.4-2.2 0-1.9 1.7-2.9 4.7-2.9v-.2c0-.6-.2-1.8-1.8-1.8-.7 0-1.5.2-2 .6l-.3-.9c.6-.4 1.6-.7 2.5-.7 2.4 0 2.9 1.6 2.9 3.2v2.9c0 .7 0 1.3.1 1.9h-1.2zm-.2-3.9c-1.5 0-3.3.2-3.3 1.7 0 .9.6 1.3 1.3 1.3 1 0 1.6-.6 1.9-1.3 0-.1.1-.3.1-.4v-1.3zm4-3.8l1.7 4.6c.2.5.4 1.1.5 1.6.1-.5.3-1.1.5-1.6l1.5-4.5h1.5l-2.1 5.5c-1 2.7-1.7 4-2.7 4.9-.7.6-1.4.8-1.7.9l-.4-1.2c.4-.1.8-.3 1.2-.7.4-.3.9-.8 1.2-1.6.1-.1.1-.3.1-.3s0-.2-.1-.4l-2.9-7.1h1.7z" fill="#fff"></path><path id="apple-watch_svg__XMLID_4__367" fill="none" stroke="#f6537f" stroke-width="2" stroke-linecap="round" stroke-linejoin="round" stroke-miterlimit="10" d="M413.9 390.8l-4.9-4.9 4.9-4.9"></path></svg>