{
  "accessors": [
    {
      "bufferView": 2,
      "componentType": 5126,
      "count": 1572,
      "max": [0.9935951828956604, 0.9935951828956604, 1.0000003576278687],
      "min": [-0.9935951828956604, -0.9935951828956604, -1.0000003576278687],
      "type": "VEC3"
    },
    {
      "bufferView": 2,
      "byteOffset": 18864,
      "componentType": 5126,
      "count": 1572,
      "max": [1.0, 1.0, 1.0],
      "min": [-1.0, -1.0, -1.0],
      "type": "VEC3"
    },
    {
      "bufferView": 1,
      "componentType": 5126,
      "count": 1572,
      "max": [0.4179839491844177, 0.6552162170410156],
      "min": [0.1095457673072815, 0.34986233711242676],
      "type": "VEC2"
    },
    {
      "bufferView": 0,
      "componentType": 5125,
      "count": 8064,
      "type": "SCALAR"
    },
    {
      "bufferView": 2,
      "byteOffset": 37728,
      "componentType": 5126,
      "count": 14906,
      "max": [6.064722061157227, 6.096588134765625, 0.8630555868148804],
      "min": [-6.128562927246094, -6.096588134765625, -0.8630555868148804],
      "type": "VEC3"
    },
    {
      "bufferView": 2,
      "byteOffset": 216600,
      "componentType": 5126,
      "count": 14906,
      "max": [1.0, 1.0, 1.0],
      "min": [-1.0, -1.0, -1.0],
      "type": "VEC3"
    },
    {
      "bufferView": 1,
      "byteOffset": 12576,
      "componentType": 5126,
      "count": 14906,
      "max": [0.9419417977333069, 0.6097360849380493],
      "min": [0.5994306206703186, 0.26722487807273865],
      "type": "VEC2"
    },
    {
      "bufferView": 0,
      "byteOffset": 32256,
      "componentType": 5125,
      "count": 81120,
      "type": "SCALAR"
    }
  ],
  "asset": {
    "extras": {
      "author": "giga (https://sketchfab.com/gits3d)",
      "license": "CC-BY-4.0 (http://creativecommons.org/licenses/by/4.0/)",
      "source": "https://sketchfab.com/3d-models/iron-dumbel-f5ccda1a705a4f68a360060bb69219c2",
      "title": "iron Dumbel"
    },
    "generator": "Sketchfab-12.66.0",
    "version": "2.0"
  },
  "bufferViews": [
    {
      "buffer": 0,
      "byteLength": 356736,
      "name": "floatBufferViews",
      "target": 34963
    },
    {
      "buffer": 0,
      "byteLength": 131824,
      "byteOffset": 356736,
      "byteStride": 8,
      "name": "floatBufferViews",
      "target": 34962
    },
    {
      "buffer": 0,
      "byteLength": 395472,
      "byteOffset": 488560,
      "byteStride": 12,
      "name": "floatBufferViews",
      "target": 34962
    }
  ],
  "buffers": [
    {
      "byteLength": 884032,
      "uri": "scene.bin"
    }
  ],
  "images": [
    {
      "uri": "textures/Grappler_baseColor.png"
    }
  ],
  "materials": [
    {
      "doubleSided": true,
      "name": "Grappler",
      "pbrMetallicRoughness": {
        "baseColorTexture": {
          "index": 0
        },
        "metallicFactor": 0.0,
        "roughnessFactor": 0.694862883881727
      }
    },
    {
      "doubleSided": true,
      "name": "Weight",
      "pbrMetallicRoughness": {
        "baseColorTexture": {
          "index": 0
        },
        "metallicFactor": 0.602535788142162,
        "roughnessFactor": 0.4520884577397767
      }
    }
  ],
  "meshes": [
    {
      "name": "Grappler_Grappler_0",
      "primitives": [
        {
          "attributes": {
            "NORMAL": 1,
            "POSITION": 0,
            "TEXCOORD_0": 2
          },
          "indices": 3,
          "material": 0,
          "mode": 4
        }
      ]
    },
    {
      "name": "Grappler_Weight_0",
      "primitives": [
        {
          "attributes": {
            "NORMAL": 5,
            "POSITION": 4,
            "TEXCOORD_0": 6
          },
          "indices": 7,
          "material": 1,
          "mode": 4
        }
      ]
    }
  ],
  "nodes": [
    {
      "children": [1],
      "matrix": [
        1.0, 0.0, 0.0, 0.0, 0.0, 2.220446049250313e-16, -1.0, 0.0, 0.0, 1.0,
        2.220446049250313e-16, 0.0, 0.0, 0.0, 0.0, 1.0
      ],
      "name": "Sketchfab_model"
    },
    {
      "children": [2],
      "matrix": [
        0.009999999776482582, 0.0, 0.0, 0.0, 0.0, 0.0, 0.009999999776482582,
        0.0, 0.0, -0.009999999776482582, 0.0, 0.0, 0.0, 0.0, 0.0, 1.0
      ],
      "name": "bee8c6ad058644e89f24575a9d122a6c.fbx"
    },
    {
      "children": [3],
      "name": "RootNode"
    },
    {
      "children": [4, 5],
      "matrix": [
        -3.3878822231736195e-7, 7.750570774078362, -8.604862127368628e-16, 0.0,
        3.3878822274760503e-7, 1.548875182926353e-14, 7.750570774078362, 0.0,
        99.99999999999982, 4.371139011860592e-6, -4.371139006309477e-6, 0.0,
        0.0, 47.99221420288086, 0.0, 1.0
      ],
      "name": "Grappler"
    },
    {
      "mesh": 0,
      "name": "Grappler_Grappler_0"
    },
    {
      "mesh": 1,
      "name": "Grappler_Weight_0"
    }
  ],
  "samplers": [
    {
      "magFilter": 9729,
      "minFilter": 9987,
      "wrapS": 10497,
      "wrapT": 10497
    }
  ],
  "scene": 0,
  "scenes": [
    {
      "name": "Sketchfab_Scene",
      "nodes": [0]
    }
  ],
  "textures": [
    {
      "sampler": 0,
      "source": 0
    }
  ]
}
